<svg width="354" height="260" viewBox="0 0 354 260" fill="none" xmlns="http://www.w3.org/2000/svg">
<rect width="354" height="260" fill="#1234FF"/>
<g clip-path="url(#clip0_553_1052)">
<path d="M117.846 144C117.548 144 117.248 143.964 116.95 143.89C115.734 143.593 114.751 142.722 114.253 141.503L107.622 125.291L100.709 142.187C100.106 143.661 98.3852 144.382 96.867 143.796C95.3488 143.211 94.6061 141.542 95.2085 140.068L104.035 118.493C104.664 116.955 106.038 116 107.622 116C109.205 116 110.579 116.955 111.208 118.493L118.682 136.771L127.118 129.425L118.056 120.937C116.881 119.836 116.848 118.018 117.982 116.876C119.117 115.735 120.99 115.703 122.166 116.804L132.159 126.165C133.074 126.963 133.596 128.155 133.596 129.457C133.596 130.759 133.053 131.998 132.106 132.796L120.297 143.08C120.272 143.101 120.248 143.121 120.223 143.142C119.534 143.703 118.7 143.998 117.846 143.998V144ZM128.25 130.476C128.25 130.476 128.252 130.477 128.253 130.478C128.253 130.478 128.251 130.477 128.25 130.476ZM128.253 128.441C128.253 128.441 128.251 128.443 128.25 128.443C128.25 128.443 128.252 128.441 128.253 128.441Z" fill="white"/>
<path d="M158.395 120.753V122.857C152.501 116.835 142.895 122.355 143.226 130.253C142.926 138.158 152.488 143.528 158.395 137.605V139.675H162.809V120.753H158.395ZM157.171 134.353C153.625 137.925 147.536 135.312 147.761 130.214C147.67 127.101 149.975 124.377 153.218 124.458C158.436 124.243 160.294 131.019 157.171 134.353Z" fill="white"/>
<path d="M185.201 139.675H179.904L175.404 133.172L170.875 139.675H165.739L172.851 129.987L166.1 120.753H171.436L175.652 126.747L179.743 120.753H184.84L178.213 129.944L185.201 139.675Z" fill="white"/>
<path d="M196.438 140.069C188.631 140.311 183.786 131.635 187.65 125.188C190.765 119.555 199.775 118.646 203.942 123.631L201.053 126.508C197.586 122.622 190.634 124.718 190.86 130.213C190.672 135.719 197.553 137.806 201.053 133.918L203.942 136.795C202.093 138.947 199.331 140.077 196.438 140.067V140.069Z" fill="white"/>
<path d="M223.424 124.931C218.627 116.422 205.163 120.688 205.466 130.214C205.221 139.368 217.362 143.461 223.324 136.796L220.515 133.998C217.619 137.322 210.897 136.472 209.998 131.83H224.367C224.897 129.498 224.527 126.888 223.424 124.931ZM210.01 128.282C211.083 123.176 219.446 122.853 220.263 128.282H210.01Z" fill="white"/>
<path d="M234.44 140.069C231.415 140.073 228.373 138.904 226.454 136.6L229.262 133.841C230.919 135.903 234.413 136.749 236.767 135.694C237.805 135.17 237.752 133.658 236.807 133.092C234.902 131.926 232.13 131.8 230.126 130.628C226.268 128.767 226.887 122.54 230.848 121.069C234.359 119.604 239.469 120.315 241.743 123.592L238.933 126.351C237.543 124.463 234.532 123.759 232.472 124.695C231.479 125.184 231.537 126.551 232.472 127.06C234.416 128.134 237.174 128.289 239.154 129.524C240.846 130.521 241.77 131.963 241.743 134.077C241.74 138.095 238.48 140.105 234.439 140.069H234.44Z" fill="white"/>
<path d="M251.695 140.069C248.67 140.073 245.629 138.904 243.709 136.6L246.518 133.841C248.174 135.903 251.669 136.749 254.022 135.694C255.06 135.17 255.007 133.658 254.063 133.092C252.158 131.926 249.385 131.8 247.381 130.628C243.524 128.767 244.142 122.54 248.103 121.069C251.614 119.604 256.725 120.315 258.998 123.592L256.188 126.351C254.798 124.463 251.787 123.759 249.728 124.695C248.734 125.184 248.792 126.551 249.728 127.06C251.672 128.134 254.43 128.289 256.409 129.524C258.102 130.521 259.026 131.963 258.998 134.077C258.996 138.095 255.736 140.105 251.694 140.069H251.695Z" fill="white"/>
</g>
<defs>
<clipPath id="clip0_553_1052">
<rect width="164" height="28" fill="white" transform="translate(95 116)"/>
</clipPath>
</defs>
</svg>
