<svg width="354" height="260" viewBox="0 0 354 260" fill="none" xmlns="http://www.w3.org/2000/svg">
<rect width="354" height="260" fill="black"/>
<path d="M108.612 125.24L104.115 131.537C103.535 132.348 102.327 132.339 101.759 131.52L98.3136 126.543C97.9703 126.047 97.9725 125.389 98.3192 124.896L104.138 116.612C104.407 116.228 104.847 116 105.316 116H122.833C123.998 116 124.681 117.311 124.013 118.265L119.982 124.023C119.712 124.408 119.272 124.638 118.802 124.638H109.784C109.319 124.638 108.883 124.862 108.612 125.24Z" fill="white"/>
<path d="M113.867 136.037L109.369 142.334C108.79 143.145 107.581 143.136 107.014 142.317L103.568 137.339C103.225 136.844 103.227 136.186 103.574 135.693L109.392 127.409C109.662 127.025 110.102 126.797 110.57 126.797H122.905C124.07 126.797 124.753 128.108 124.085 129.062L120.054 134.82C119.785 135.205 119.344 135.434 118.875 135.434H115.038C114.574 135.434 114.137 135.659 113.867 136.037Z" fill="white"/>
<path fill-rule="evenodd" clip-rule="evenodd" d="M158.717 116.369H153.568C153.514 116.369 153.468 116.409 153.458 116.464L149.888 142.054C149.878 142.119 149.929 142.177 149.995 142.177H155.144C155.2 142.177 155.244 142.137 155.253 142.084L158.824 116.495C158.833 116.43 158.782 116.369 158.717 116.369ZM180.222 116.369H162.141C162.088 116.369 162.042 116.409 162.035 116.464L161.408 120.922C161.396 120.987 161.447 121.045 161.515 121.045H166.805C167.394 121.045 167.848 121.566 167.767 122.15L165.009 142.054C164.999 142.119 165.05 142.177 165.118 142.177H170.265C170.321 142.177 170.367 142.137 170.374 142.081L173.212 121.881C173.279 121.402 173.689 121.045 174.174 121.045H177.785C177.824 121.045 177.861 121.024 177.88 120.989L180.318 116.532C180.357 116.457 180.306 116.369 180.222 116.369ZM204.026 116.369H198.877C198.823 116.369 198.777 116.409 198.77 116.464L196.565 132.235C196.402 133.366 196.044 134.348 195.492 135.179C194.937 136.01 194.245 136.646 193.414 137.085C192.581 137.524 191.668 137.742 190.677 137.742C189.66 137.742 188.782 137.524 188.044 137.085C187.303 136.646 186.762 136.034 186.417 135.249C186.092 134.441 185.999 133.528 186.138 132.512L188.374 116.495C188.383 116.43 188.33 116.369 188.265 116.369H183.115C183.062 116.369 183.015 116.409 183.008 116.464L180.768 132.581C180.515 134.476 180.768 136.184 181.532 137.707C182.293 139.21 183.436 140.398 184.961 141.276C186.507 142.153 188.32 142.592 190.398 142.592C192.386 142.592 194.187 142.177 195.803 141.345C197.442 140.514 198.793 139.37 199.857 137.916C200.918 136.437 201.577 134.752 201.83 132.858L204.133 116.495C204.142 116.43 204.091 116.369 204.026 116.369Z" fill="white"/>
<path d="M150.624 116.369H133.237C133.183 116.369 133.137 116.409 133.13 116.464L129.557 142.054C129.548 142.119 129.599 142.177 129.664 142.177H134.813C134.869 142.177 134.915 142.137 134.922 142.084L136.184 133.106C136.252 132.627 136.662 132.27 137.146 132.27H142.205C142.245 132.27 142.282 132.247 142.301 132.212L144.717 127.755C144.755 127.68 144.703 127.594 144.62 127.594L138.07 127.596C137.483 127.596 137.03 127.08 137.107 126.498L137.703 121.941C137.766 121.459 138.175 121.098 138.661 121.095L148.205 121.045C148.244 121.045 148.281 121.024 148.302 120.989L150.721 116.532C150.761 116.457 150.707 116.369 150.624 116.369Z" fill="white"/>
<path fill-rule="evenodd" clip-rule="evenodd" d="M229.671 116.369H224.522C224.468 116.369 224.422 116.409 224.415 116.464L222.589 129.32C222.46 130.225 221.266 130.468 220.795 129.684L212.821 116.423C212.8 116.39 212.765 116.369 212.728 116.369H208.76C208.707 116.369 208.66 116.409 208.653 116.464L205.08 142.054C205.073 142.119 205.124 142.177 205.189 142.177H210.339C210.392 142.177 210.439 142.137 210.446 142.081L212.284 128.966C212.412 128.054 213.619 127.815 214.084 128.609L222.005 142.123C222.026 142.156 222.061 142.177 222.1 142.177H226.101C226.154 142.177 226.2 142.137 226.207 142.084L229.78 116.495C229.79 116.43 229.739 116.369 229.671 116.369Z" fill="white"/>
<path d="M250.88 125.385C250.962 125.939 250.514 126.413 249.954 126.413H238.632C238.106 126.413 237.764 125.91 237.947 125.417C238.553 123.889 239.44 122.693 240.587 121.862C241.755 121.01 243.236 120.576 244.989 120.576C246.351 120.576 247.542 120.934 248.536 121.642C249.523 122.317 250.236 123.248 250.66 124.409C250.752 124.654 250.825 125.015 250.88 125.385ZM254.939 121.811C254.064 120.088 252.778 118.675 251.115 117.609C249.451 116.541 247.405 116 245.033 116C243.134 116 241.362 116.381 239.772 117.128C238.216 117.843 236.812 118.87 235.595 120.179C234.416 121.481 233.487 122.993 232.835 124.674C232.215 126.348 231.899 128.154 231.899 130.044C231.899 132.402 232.405 134.548 233.406 136.424C234.437 138.265 235.862 139.739 237.643 140.8C239.426 141.866 241.515 142.404 243.851 142.404C245.527 142.404 247.12 142.135 248.587 141.603C250.05 141.044 251.343 140.287 252.439 139.347C253.532 138.378 254.389 137.299 254.986 136.138L255.164 135.79L250.99 133.515L250.667 134.011C249.943 135.14 249.112 135.91 247.956 136.663C246.844 137.375 245.479 137.738 243.897 137.738C242.634 137.738 241.474 137.461 240.452 136.923C239.431 136.354 238.592 135.532 237.97 134.483C237.45 133.568 237.14 132.757 237.083 132.089V131.825C237.083 131.289 237.518 130.854 238.055 130.854H255.766L255.838 130.543C255.933 130.134 256.026 129.635 256.116 129.059C256.209 128.463 256.258 127.891 256.258 127.36C256.258 125.366 255.815 123.499 254.939 121.811Z" fill="white"/>
</svg>
