<svg width="354" height="260" viewBox="0 0 354 260" fill="none" xmlns="http://www.w3.org/2000/svg">
<rect width="354" height="260" fill="#FD016B"/>
<path fill-rule="evenodd" clip-rule="evenodd" d="M149.496 117.951C150.174 116.953 149.944 115.593 148.959 114.893C147.973 114.206 146.629 114.439 145.938 115.437L144.722 117.2C143.57 116.655 142.29 116.344 140.946 116.344C136.006 116.344 132 120.413 132 125.402C132 130.391 136.006 134.46 140.933 134.46C145.861 134.46 149.88 130.404 149.88 125.415C149.88 123.381 149.214 121.515 148.088 119.998L149.496 117.951ZM140.933 130.067C138.387 130.067 136.326 127.981 136.326 125.402C136.326 122.823 138.387 120.737 140.933 120.737C143.48 120.737 145.541 122.823 145.541 125.402C145.554 127.981 143.48 130.067 140.933 130.067Z" fill="white"/>
<path d="M220.119 132.788C221.36 131.635 222 130.184 222 128.473C222 127.126 221.616 126.037 220.835 125.234C220.093 124.443 218.711 123.614 216.586 122.694C214.846 121.955 214.487 121.359 214.487 120.983C214.487 120.672 214.59 120.426 214.794 120.245C214.999 120.038 215.242 119.947 215.536 119.947C216.061 119.947 216.535 120.258 216.932 120.906C216.945 120.906 216.945 120.906 216.945 120.919C216.963 120.951 216.982 120.984 217.001 121.017C217.05 121.101 217.1 121.188 217.136 121.281C217.136 121.294 217.137 121.294 217.149 121.307C217.213 121.398 217.29 121.489 217.38 121.58C217.764 121.968 218.289 122.215 218.877 122.215C220.029 122.215 220.963 121.269 220.963 120.102C220.963 119.947 220.951 119.804 220.925 119.662C220.899 119.519 220.861 119.39 220.81 119.273L220.807 119.266C220.782 119.204 220.757 119.142 220.72 119.092C219.619 116.966 217.982 115.891 215.844 115.891C214.321 115.891 213.003 116.409 211.927 117.42C210.878 118.431 210.34 119.74 210.34 121.281C210.34 122.461 210.661 123.446 211.288 124.197C211.761 124.78 212.593 125.363 213.758 125.946C214.167 126.154 214.564 126.348 214.961 126.53C215.345 126.711 215.742 126.905 216.113 127.1C217.034 127.657 217.508 128.24 217.508 128.849C217.508 129.912 216.957 130.417 215.78 130.417C215.191 130.417 214.692 130.21 214.257 129.808C214.142 129.691 213.937 129.445 213.566 128.849C213.399 128.603 213.169 128.383 212.913 128.227C212.593 128.033 212.209 127.916 211.812 127.916C210.763 127.916 209.906 128.694 209.739 129.717C209.726 129.821 209.713 129.938 209.713 130.054C209.713 130.352 209.777 130.624 209.879 130.883C209.931 131.013 209.995 131.13 210.072 131.246C211.326 133.358 213.22 134.434 215.729 134.434C217.431 134.434 218.903 133.877 220.119 132.788Z" fill="white"/>
<path d="M169.653 126.517V118.599C169.653 117.368 168.68 116.383 167.477 116.383C166.249 116.383 165.276 117.368 165.276 118.599V126.426C165.276 129.108 164.278 130.417 162.217 130.417C160.156 130.417 159.158 129.108 159.158 126.426V118.496C159.107 117.394 158.262 116.5 157.188 116.396H156.74C155.665 116.5 154.82 117.394 154.769 118.496V126.53C154.769 128.123 154.935 129.341 155.268 130.158C155.613 131.078 156.215 131.92 157.047 132.659C158.403 133.851 160.144 134.46 162.217 134.46C164.291 134.46 166.044 133.851 167.401 132.659C168.22 131.907 168.809 131.078 169.141 130.145C169.487 129.121 169.653 127.903 169.653 126.517Z" fill="white"/>
<path d="M186.126 119.778C185.754 120.465 184.987 120.854 184.206 120.854H184.193C183.873 120.854 183.553 120.776 183.284 120.66C183.269 120.652 183.254 120.645 183.24 120.639C183.204 120.624 183.171 120.609 183.144 120.582C182.683 120.349 182.222 120.219 181.787 120.219C179.803 120.219 178.856 121.735 178.856 124.845V131.713C178.856 132.944 177.884 133.942 176.655 133.942C175.477 133.942 174.517 133.009 174.453 131.829V117.537C174.453 116.889 174.965 116.37 175.606 116.37H177.704C178.344 116.37 178.856 116.889 178.856 117.537C179.419 116.992 179.931 116.591 180.392 116.357C180.993 116.046 181.697 115.891 182.516 115.891C183.336 115.891 184.193 116.111 185.076 116.526C185.162 116.563 185.235 116.6 185.309 116.637L185.319 116.643C185.576 116.798 185.819 117.005 185.985 117.239C186.472 117.912 186.625 118.858 186.126 119.778Z" fill="white"/>
<path d="M145.465 137.388C145.695 136.209 146.834 135.445 148.012 135.678C149.176 135.924 149.931 137.077 149.701 138.244C148.869 142.455 145.183 145.5 140.947 145.5C138.361 145.5 135.904 144.373 134.202 142.39C133.422 141.47 133.511 140.084 134.42 139.293C135.328 138.503 136.698 138.606 137.478 139.513C138.361 140.537 139.629 141.12 140.96 141.12C143.135 141.12 145.03 139.553 145.465 137.388Z" fill="white"/>
<path fill-rule="evenodd" clip-rule="evenodd" d="M188.481 125.273C188.481 120.284 192.487 116.228 197.415 116.228C202.342 116.228 206.348 120.284 206.348 125.273C206.348 130.261 202.342 134.317 197.415 134.317C192.487 134.317 188.481 130.261 188.481 125.273ZM192.769 125.273C192.769 127.864 194.855 129.976 197.415 129.976C199.975 129.976 202.06 127.864 202.06 125.273C202.06 122.681 199.975 120.569 197.415 120.569C194.855 120.569 192.769 122.681 192.769 125.273Z" fill="white"/>
</svg>
