<svg width="354" height="260" viewBox="0 0 354 260" fill="none" xmlns="http://www.w3.org/2000/svg">
<rect width="354" height="260" fill="#8672D3"/>
<path d="M175.988 111.611C175.865 111.628 175.754 111.645 175.655 111.661C175.451 110.721 175.247 109.755 175.145 108.815C175.017 107.748 175.017 106.656 175.323 105.639C175.86 103.836 177.187 102.819 178.77 102.209L180.762 101.447C180.336 101.775 180.014 102.009 179.736 102.212L179.735 102.213C179.431 102.435 179.178 102.619 178.898 102.845C178.898 102.845 178.158 103.226 177.468 103.937C177.341 104.064 177.213 104.191 177.111 104.318C176.753 104.776 176.421 105.309 176.294 105.944C176.294 105.944 175.783 107.952 176.906 111.458C176.559 111.527 176.248 111.572 175.988 111.611Z" fill="white"/>
<path d="M183.928 106.554V106.478C183.647 106.402 183.341 106.58 183.239 106.91C183.264 107.672 183.035 109.959 180.149 111.127C179.766 111.356 179 111.585 177.953 111.839C177.673 111.915 177.392 111.991 177.085 112.042C176.86 112.102 176.618 112.153 176.368 112.205C176.193 112.242 176.013 112.28 175.834 112.322C175.821 112.322 175.802 112.328 175.783 112.334C175.764 112.341 175.745 112.347 175.732 112.347C174.609 112.601 173.434 112.881 172.362 113.287C171.34 113.668 170.37 114.151 169.578 114.888C168.2 116.184 167.893 117.835 168.072 119.512L168.251 121.621C168.413 120.764 168.503 120.267 168.593 119.77C168.645 119.486 168.696 119.202 168.761 118.851C168.761 118.369 168.863 117.403 169.578 116.438C169.655 116.311 169.757 116.209 169.859 116.107C170.012 115.929 170.191 115.752 170.395 115.599C170.395 115.599 171.851 114.227 177.366 113.287C178.107 113.109 178.873 112.881 179.588 112.626C180.609 112.245 181.605 111.763 182.371 111.026C183.699 109.755 184.03 108.155 183.928 106.554Z" fill="white"/>
<path d="M172.668 110.823C172.489 110.873 172.31 110.924 172.132 111C171.238 111.331 170.37 111.763 169.578 112.296C144.3 112.728 121.422 115.269 103.957 119.207C120.988 114.278 145.398 111.102 172.668 110.823Z" fill="white"/>
<path d="M188.32 145.453C189.418 145.453 190.414 145.25 191.308 144.818C192.201 144.411 192.942 143.776 193.58 142.938L195.75 144.36C194.984 145.377 193.989 146.19 192.763 146.825C191.537 147.46 190.056 147.765 188.346 147.765C186.865 147.765 185.511 147.511 184.26 147.028C183.009 146.52 181.911 145.859 181.017 144.97C180.124 144.106 179.409 143.065 178.898 141.845C178.387 140.651 178.132 139.304 178.132 137.856C178.132 136.382 178.413 135.036 178.924 133.816C179.46 132.622 180.175 131.58 181.094 130.717C182.013 129.853 183.111 129.192 184.362 128.709C185.614 128.227 186.992 127.998 188.473 127.998C189.112 127.998 189.801 128.049 190.465 128.176C191.129 128.303 191.793 128.481 192.406 128.735C193.018 128.989 193.58 129.294 194.091 129.649C194.601 130.031 195.035 130.437 195.393 130.92L193.248 132.521C192.763 131.885 192.099 131.352 191.231 130.945C190.363 130.513 189.418 130.31 188.422 130.31C187.273 130.31 186.252 130.513 185.358 130.92C184.439 131.301 183.673 131.86 183.035 132.546C182.396 133.257 181.911 134.045 181.554 134.96C181.222 135.874 181.043 136.865 181.043 137.881C181.043 138.949 181.222 139.939 181.554 140.854C181.886 141.794 182.371 142.582 183.009 143.268C183.647 143.954 184.413 144.487 185.307 144.869C186.201 145.25 187.197 145.453 188.32 145.453Z" fill="white"/>
<path d="M173.613 128.506H170.906V147.333H173.613V128.506Z" fill="white"/>
<path fill-rule="evenodd" clip-rule="evenodd" d="M163.629 154.142C164.063 154.142 164.446 154.244 164.778 154.422C165.084 154.625 165.34 154.879 165.493 155.184C165.672 155.514 165.748 155.921 165.748 156.378C165.748 156.861 165.672 157.267 165.493 157.598C165.314 157.928 165.084 158.207 164.752 158.385C164.421 158.563 164.038 158.665 163.603 158.665C163.169 158.665 162.812 158.563 162.48 158.385C162.174 158.207 161.918 157.928 161.739 157.598C161.561 157.267 161.484 156.861 161.484 156.403C161.484 155.946 161.561 155.54 161.739 155.209C161.918 154.879 162.148 154.599 162.48 154.422C162.812 154.244 163.195 154.142 163.629 154.142ZM163.629 158.233C164.114 158.233 164.497 158.08 164.778 157.75C165.059 157.445 165.212 156.988 165.187 156.429C165.187 155.87 165.059 155.413 164.778 155.108C164.523 154.777 164.14 154.625 163.629 154.625C163.144 154.625 162.761 154.803 162.48 155.108C162.199 155.413 162.071 155.844 162.071 156.429C162.071 156.988 162.199 157.42 162.48 157.75C162.761 158.08 163.144 158.233 163.629 158.233Z" fill="white"/>
<path d="M144.887 154.218H145.423V158.182H147.824V158.639H144.887V154.218Z" fill="white"/>
<path fill-rule="evenodd" clip-rule="evenodd" d="M149.228 158.639L151.296 154.218H151.73L153.799 158.639H153.237L152.726 157.521H150.3L149.79 158.639H149.228ZM151.526 154.803L150.505 157.064H152.573L151.552 154.803H151.526Z" fill="white"/>
<path fill-rule="evenodd" clip-rule="evenodd" d="M158.497 156.378C158.727 156.302 158.905 156.175 159.058 155.997C159.186 155.819 159.263 155.616 159.263 155.387C159.263 155.031 159.135 154.752 158.88 154.549C158.624 154.345 158.241 154.244 157.756 154.244H155.892V158.665H157.833C158.318 158.665 158.701 158.563 158.982 158.36C159.263 158.157 159.39 157.852 159.39 157.445C159.39 157.166 159.314 156.937 159.161 156.759C158.956 156.556 158.752 156.429 158.497 156.378ZM156.377 154.625H157.629C158.344 154.625 158.675 154.879 158.675 155.413C158.675 155.921 158.318 156.2 157.629 156.2H156.377V154.625ZM157.756 158.233H156.377V156.607H157.756C158.471 156.607 158.829 156.886 158.829 157.42C158.803 157.953 158.446 158.233 157.756 158.233Z" fill="white"/>
<path fill-rule="evenodd" clip-rule="evenodd" d="M170.421 156.708C170.778 156.658 171.034 156.505 171.213 156.302C171.391 156.099 171.493 155.819 171.493 155.489C171.493 155.082 171.366 154.752 171.085 154.549C170.83 154.32 170.421 154.218 169.936 154.218H168.072V158.639H168.608V156.759H169.451C169.655 156.759 169.834 156.785 169.987 156.861C170.115 156.912 170.242 157.039 170.344 157.217L171.161 158.639H171.749L170.932 157.191C170.778 156.937 170.6 156.759 170.421 156.708ZM169.859 156.353H168.634V154.625H169.859C170.6 154.625 170.957 154.904 170.957 155.489C170.957 156.073 170.574 156.353 169.859 156.353Z" fill="white"/>
<path fill-rule="evenodd" clip-rule="evenodd" d="M173.306 158.639L175.375 154.218H175.809L177.877 158.639H177.315L176.804 157.521H174.379L173.868 158.639H173.306ZM175.604 154.803L174.583 157.064H176.651L175.63 154.803H175.604Z" fill="white"/>
<path d="M178.873 154.65H180.583V158.639H181.12V154.65H182.83V154.218H178.873V154.65Z" fill="white"/>
<path fill-rule="evenodd" clip-rule="evenodd" d="M186.431 154.142C186.865 154.142 187.248 154.244 187.58 154.422C187.886 154.625 188.141 154.879 188.295 155.184C188.473 155.514 188.55 155.921 188.55 156.378C188.55 156.861 188.473 157.267 188.295 157.598C188.116 157.928 187.886 158.207 187.554 158.385C187.222 158.563 186.839 158.665 186.405 158.665C185.971 158.665 185.614 158.563 185.282 158.385C184.975 158.207 184.72 157.928 184.541 157.598C184.362 157.267 184.286 156.861 184.286 156.403C184.286 155.946 184.362 155.54 184.541 155.209C184.72 154.879 184.95 154.599 185.282 154.422C185.614 154.244 185.997 154.142 186.431 154.142ZM186.431 158.233C186.916 158.233 187.299 158.08 187.58 157.75C187.86 157.445 187.988 156.988 187.988 156.429C187.988 155.87 187.86 155.413 187.58 155.108C187.324 154.777 186.941 154.625 186.431 154.625C185.945 154.625 185.562 154.803 185.282 155.108C185.001 155.413 184.873 155.844 184.873 156.429C184.873 156.988 185.001 157.42 185.282 157.75C185.562 158.08 185.945 158.233 186.431 158.233Z" fill="white"/>
<path fill-rule="evenodd" clip-rule="evenodd" d="M193.197 156.708C193.555 156.658 193.81 156.505 193.989 156.302C194.167 156.099 194.269 155.819 194.269 155.489C194.269 155.082 194.142 154.752 193.861 154.549C193.606 154.32 193.197 154.218 192.712 154.218H190.848V158.639H191.384V156.759H192.227C192.431 156.759 192.61 156.785 192.763 156.861C192.891 156.912 193.018 157.039 193.12 157.217L193.938 158.639H194.525L193.708 157.191C193.58 156.937 193.401 156.759 193.197 156.708ZM192.661 156.353H191.435V154.625H192.661C193.401 154.625 193.759 154.904 193.759 155.489C193.759 156.073 193.376 156.353 192.661 156.353Z" fill="white"/>
<path d="M196.644 154.218H197.18V158.639H196.644V154.218Z" fill="white"/>
<path fill-rule="evenodd" clip-rule="evenodd" d="M202.772 154.422C202.44 154.244 202.057 154.142 201.623 154.142C201.189 154.142 200.806 154.244 200.474 154.422C200.142 154.599 199.912 154.879 199.734 155.209C199.555 155.54 199.478 155.946 199.478 156.403C199.478 156.861 199.555 157.267 199.734 157.598C199.912 157.928 200.168 158.207 200.474 158.385C200.806 158.563 201.164 158.665 201.598 158.665C202.032 158.665 202.415 158.563 202.747 158.385C203.079 158.207 203.308 157.928 203.487 157.598C203.666 157.267 203.742 156.861 203.742 156.378C203.742 155.921 203.666 155.514 203.487 155.184C203.334 154.879 203.104 154.625 202.772 154.422ZM202.798 157.75C202.517 158.08 202.134 158.233 201.649 158.233C201.164 158.233 200.781 158.08 200.5 157.75C200.219 157.42 200.091 156.988 200.091 156.429C200.091 155.844 200.219 155.413 200.5 155.108C200.781 154.803 201.164 154.625 201.649 154.625C202.159 154.625 202.542 154.777 202.798 155.108C203.079 155.413 203.206 155.87 203.206 156.429C203.206 156.988 203.079 157.445 202.798 157.75Z" fill="white"/>
<path d="M207.317 156.2L208.007 156.327C208.466 156.403 208.798 156.53 208.951 156.657C209.181 156.835 209.283 157.089 209.283 157.394C209.283 157.648 209.207 157.877 209.079 158.055C208.951 158.233 208.747 158.385 208.492 158.487C208.236 158.588 207.93 158.639 207.573 158.639C207.215 158.639 206.883 158.614 206.577 158.512C206.296 158.436 206.015 158.309 205.811 158.131L206.015 157.725C206.245 157.877 206.475 158.004 206.73 158.08C206.985 158.156 207.266 158.207 207.598 158.207C208.007 158.207 208.287 158.156 208.492 158.004C208.67 157.852 208.773 157.674 208.773 157.445C208.773 157.267 208.696 157.115 208.568 157.013C208.441 156.912 208.211 156.81 207.879 156.759L207.189 156.632C206.755 156.556 206.449 156.403 206.245 156.226C206.04 156.048 205.938 155.794 205.938 155.463C205.938 155.209 205.989 154.981 206.143 154.777C206.296 154.574 206.5 154.422 206.755 154.32C207.011 154.218 207.317 154.168 207.649 154.168C207.956 154.168 208.236 154.218 208.517 154.32C208.798 154.422 209.028 154.549 209.207 154.727L209.002 155.133C208.798 154.955 208.594 154.828 208.364 154.752C208.134 154.676 207.904 154.625 207.624 154.625C207.266 154.625 206.985 154.701 206.781 154.854C206.577 155.006 206.475 155.209 206.475 155.463C206.475 155.667 206.551 155.819 206.679 155.946C206.806 156.048 207.011 156.149 207.317 156.2Z" fill="white"/>
<path d="M202.568 144.055V128.506H199.861V144.945C199.861 146.266 200.959 147.333 202.313 147.333H211.224V144.996H203.538C203.002 144.996 202.568 144.564 202.568 144.055Z" fill="white"/>
<path fill-rule="evenodd" clip-rule="evenodd" d="M222.076 129.599C222.357 128.938 223.046 128.506 223.787 128.506C224.527 128.506 225.216 128.938 225.497 129.599L233.336 147.333H230.272L228.306 142.709H219.114L217.173 147.333H214.16L222.076 129.599ZM223.71 131.58L220.059 140.397H227.336L223.71 131.58Z" fill="white"/>
<path d="M135.159 130.818H143.661V128.506H133.882C132.427 128.506 131.227 129.649 131.227 131.072V136.078C131.227 137.526 132.452 138.72 133.933 138.72H143.074V136.459H133.933V132.012C133.933 131.352 134.495 130.818 135.159 130.818Z" fill="white"/>
<path d="M133.933 139.126V143.801C133.933 144.462 134.495 144.995 135.159 144.97H144.07V147.308H133.729C132.35 147.308 131.227 146.24 131.227 144.894V139.126H133.933Z" fill="white"/>
<path fill-rule="evenodd" clip-rule="evenodd" d="M248.605 137.068C249.474 136.23 249.908 135.112 249.908 133.715C249.908 132.749 249.729 131.936 249.371 131.276C249.014 130.615 248.503 130.081 247.89 129.675C247.252 129.268 246.537 128.963 245.695 128.786C244.852 128.608 243.958 128.506 243.039 128.506H236.834V147.333H239.541V138.949H242.452L245.235 138.695C246.588 138.466 247.712 137.907 248.605 137.068ZM242.63 136.738H239.515V130.742H242.835C243.422 130.742 243.984 130.793 244.494 130.894C245.031 130.996 245.49 131.149 245.873 131.377C246.256 131.606 246.588 131.911 246.818 132.292C247.048 132.673 247.175 133.156 247.175 133.715C247.175 134.274 247.048 134.756 246.818 135.137C246.588 135.519 246.256 135.823 245.848 136.078C245.439 136.306 244.954 136.484 244.418 136.586C243.856 136.687 243.269 136.738 242.63 136.738Z" fill="white"/>
<path d="M243.703 139.939H246.716L251.261 147.333H247.993L243.703 139.939Z" fill="white"/>
<path d="M106.459 128.506H103.957V147.333H106.587V131.606H106.638L113.047 147.333H115.753C115.753 147.333 110.289 133.791 108.782 130.056C108.425 129.116 107.506 128.506 106.459 128.506Z" fill="white"/>
<path d="M114.221 142.633L119.021 130.386C119.456 129.243 120.579 128.506 121.83 128.481H123.975V147.308H121.268V131.58H121.217L116.749 142.633H114.221Z" fill="white"/>
<path d="M162.837 130.717C161.842 129.954 160.718 129.395 159.467 129.04C158.216 128.684 156.99 128.506 155.739 128.506H149.305C149.177 128.506 149.1 128.608 149.1 128.709V130.793H155.203C156.377 130.793 157.45 130.945 158.446 131.25C159.441 131.555 160.31 132.012 161.025 132.597C161.74 133.181 162.301 133.918 162.71 134.807C163.118 135.696 163.323 136.713 163.323 137.881C163.323 138.999 163.118 139.99 162.71 140.88C162.301 141.769 161.74 142.506 161.025 143.115C160.31 143.725 159.441 144.183 158.446 144.487C157.45 144.818 156.377 144.97 155.203 144.97H151.807V131.809H149.1V144.233C149.1 145.91 150.505 147.282 152.241 147.282H155.765C157.016 147.282 158.241 147.104 159.493 146.723C160.744 146.342 161.867 145.758 162.863 144.996C163.859 144.233 164.676 143.242 165.289 142.074C165.902 140.905 166.208 139.508 166.208 137.881C166.208 136.205 165.902 134.782 165.289 133.613C164.65 132.444 163.833 131.479 162.837 130.717Z" fill="white"/>
<path d="M249.908 119.207C233.668 114.532 210.79 111.407 185.077 110.873C184.822 111.229 184.516 111.585 184.184 111.915L183.724 112.296C209.207 112.677 232.315 115.244 249.908 119.207Z" fill="white"/>
<path d="M176.141 119.563L176.217 119.41C176.217 119.461 176.192 119.512 176.141 119.563Z" fill="white"/>
<path d="M175.681 120.173C175.655 120.198 175.63 120.223 175.63 120.249C175.655 120.223 175.681 120.198 175.681 120.173Z" fill="white"/>
<path d="M177.45 111.927C177.323 111.955 177.194 111.983 177.06 112.017L177.13 111.999L177.243 111.971C177.48 111.911 177.704 111.854 177.928 111.813C177.77 111.856 177.612 111.891 177.45 111.927Z" fill="white"/>
<path d="M169.451 118.089C169.349 118.343 169.297 118.597 169.272 118.851L173.74 120.986C173.97 120.833 174.2 120.681 174.43 120.477L169.451 118.089Z" fill="white"/>
<path d="M177.275 114.038C177.398 114.02 177.483 114.008 177.519 113.998C177.621 114.507 177.724 115.04 177.8 115.574C177.928 116.641 177.928 117.759 177.621 118.775C177.111 120.503 175.834 121.519 174.328 122.154L174.251 122.18C174.047 121.951 174.098 121.544 174.404 121.29H174.379C174.787 121.036 175.247 120.706 175.655 120.249C175.655 120.223 175.681 120.198 175.706 120.172C175.885 119.995 176.038 119.791 176.166 119.563L176.243 119.41C176.498 118.953 176.677 118.394 176.677 117.784C176.804 117.022 176.702 116.285 176.549 115.599C176.523 115.548 176.498 115.472 176.498 115.396C176.466 115.189 176.424 114.982 176.384 114.788C176.361 114.672 176.338 114.56 176.319 114.456H176.345C176.332 114.418 176.326 114.386 176.319 114.354C176.313 114.322 176.306 114.291 176.294 114.253V114.227C176.292 114.225 176.269 114.201 176.294 114.176V114.202C176.705 114.12 177.052 114.07 177.275 114.038Z" fill="white"/>
<path d="M174.736 114.507L175.732 114.989C175.722 114.916 175.713 114.849 175.705 114.787C175.671 114.527 175.65 114.37 175.63 114.329C175.323 114.38 175.043 114.43 174.736 114.507Z" fill="white"/>
<path d="M170.932 116.184C171.161 116.006 171.391 115.828 171.647 115.675L175.911 117.733C175.86 117.987 175.783 118.242 175.706 118.47L170.932 116.184Z" fill="white"/>
<path d="M181.273 109.451L177.009 106.199C176.958 106.478 176.907 106.757 176.907 107.062L180.66 109.933C180.864 109.781 181.069 109.629 181.273 109.451Z" fill="white"/>
<path d="M177.366 110.416L178.234 111.077C178.03 111.153 177.851 111.204 177.647 111.254C177.57 111.077 177.468 110.797 177.366 110.416Z" fill="white"/>
<path d="M182.728 106.63L178.643 103.505C178.439 103.632 178.26 103.81 178.056 104.013L182.549 107.443C182.652 107.189 182.703 106.91 182.728 106.63Z" fill="white"/>
</svg>
